Simulation
nRows=19
nColumns=15
endheader
time  TH_x TH_y TH_z SC_y  SC_z  SC_x  AC_y  AC_z  AC_x  GH_y  GH_z  GH_yy  EL_x  PS_y
0.0  0.000000  0.000000  0.000000  -8.218935303232216  0.23715923143476322  5.978859009503745  52.23084948438584  0.7186370249467119  -18.768414117484426  56.5974364731843  15.062287757599355  -29.549169833036743  22.909957662013397  120.000000
0.02789999999999999  0.000000  0.000000  0.000000  -8.373367659608682  0.3851756575868466  5.537869470830052  52.24286129009244  1.3179533157594567  -18.36060422512152  53.06897761564889  14.677347228564836  -26.290448248010343  22.632882248136863  120.000000
0.05579999999999998  0.000000  0.000000  0.000000  -8.524878574456853  0.45132569126351335  5.019309136207674  52.28429617999682  1.8301316825463718  -17.822502067244645  50.11449769171474  14.49534798512271  -23.570272141299537  22.43797302373695  120.000000
0.08369999999999997  0.000000  0.000000  0.000000  -8.64780998350505  0.4344465451036496  4.44222428227723  52.3611865596512  2.2829315359245945  -17.22509723480551  47.917461849429976  14.502052403117686  -21.578944210343522  22.311774435168402  120.000000
0.11159999999999996  0.000000  0.000000  0.000000  -8.739200606069735  0.3540125107288624  3.809566354229561  52.48234501450582  2.7212819969816024  -16.625248351993644  46.559961200742364  14.691935666619992  -20.41334846745856  22.2452225135606  120.000000
0.13949999999999996  0.000000  0.000000  0.000000  -8.796412559264821  0.23131378739305258  3.1397979325946364  52.63751474348394  3.18543195131312  -16.06504510297576  45.950121209391  15.045040228982534  -20.00238326602154  22.217492101917543  120.000000
0.16739999999999994  0.000000  0.000000  0.000000  -8.82594553094993  0.08668254687903541  2.462639448292436  52.80632221934276  3.6944926162975156  -15.569203136647594  45.87789954102292  15.54230503670846  -20.159736402378766  22.208376187832386  120.000000
0.19529999999999995  0.000000  0.000000  0.000000  -8.829979915385406  -0.06317003762755749  1.816707341712162  52.971446819951026  4.24493192921824  -15.145507404475325  46.12826278579206  16.16172866705152  -20.691078704846763  22.198414319424902  120.000000
0.22319999999999993  0.000000  0.000000  0.000000  -8.806231555835733  -0.20544779536533148  1.2261919562633268  53.1301158753497  4.821171915249988  -14.789592486159506  46.52995666338602  16.893166253323134  -21.443031329811383  22.174629774933845  120.000000
0.25109999999999993  0.000000  0.000000  0.000000  -8.751959602483122  -0.3277503106911732  0.7063026409995881  53.28496492611149  5.4041887775481445  -14.488815791585267  46.977923290643375  17.72781618383275  -22.32228471719356  22.130035090480046  120.000000
0.2789999999999999  0.000000  0.000000  0.000000  -8.6670913139678  -0.4215939806629826  0.2648809781995888  53.44206027976793  5.976230249761897  -14.23121427058459  47.414184921472824  18.663118112912862  -23.278698893259364  22.060245356521122  120.000000
0.3068999999999999  0.000000  0.000000  0.000000  -8.555421181913339  -0.480616374118753  -0.09432012877359515  53.60654464353428  6.524511860439698  -14.004875508300591  47.81490273520351  19.699297991975907  -24.29132003185061  21.9625005799694  120.000000
0.3347999999999999  0.000000  0.000000  0.000000  -8.423299755826203  -0.5010262842485197  -0.3694993982343891  53.78221163933157  7.040025052994248  -13.800696695101495  48.17392202678422  20.839124836803556  -25.352721012906652  21.834489401018093  120.000000
0.36269999999999986  0.000000  0.000000  0.000000  -8.281845255209168  -0.4813323333784282  -0.5614335470796602  53.97304410488755  7.517860963489563  -13.612866979480852  48.49344837755629  22.087344305702988  -26.45988401453521  21.67422704230025  120.000000
0.3905999999999999  0.000000  0.000000  0.000000  -8.141537160328573  -0.4213255401862606  -0.6705509174498996  54.18179489536333  7.955190520114134  -13.438132322156175  48.777315780487015  23.448629388496638  -27.608750812954284  21.480501767480813  120.000000
0.41849999999999987  0.000000  0.000000  0.000000  -8.013302966583883  -0.32260807831743  -0.6970517455671743  54.4126255482873  8.352471449176296  -13.274493165210638  49.02671246943933  24.92756432130534  -28.790742618671494  21.25345666461413  120.000000
0.44639999999999985  0.000000  0.000000  0.000000  -7.9056308163850035  -0.1870915893269389  -0.6422445226811895  54.66944212829937  8.713094300212658  -13.118340205100013  49.23909121542887  26.525756127439998  -29.9926670366319  20.99529901568839  120.000000
0.47429999999999983  0.000000  0.000000  0.000000  -7.825503430102452  -0.01803562905606323  -0.509176595326283  54.95642768901494  9.041791835229194  -12.966637958752825  49.408392450931416  28.240315722652323  -31.19814855164567  20.71039762001378  120.000000
0.5021999999999999  0.000000  0.000000  0.000000  -7.7781637022550685  0.18056956233028656  -0.30049470768078207  55.27694970711663  9.34300715905559  -12.816300542724846  49.52753704562652  30.06088910111521  -32.3897797392584  20.405390319040745  120.000000
